# xmcd
#
# Track frame offsets:
#	150
#	11617
#	24347
#	35142
#	45466
#	57382
#	70733
#	82393
#	95225
#	107234
#	120074
#	131418
#	143351
#	153566
#	165410
#	176946
#	188050
#	200083
#	211387
#	222545
#
# Disc length: 3131 seconds
#
# Revision: 1
# Processed by: cddbd v1.5.2PL0 Copyright (c) Steve Scherf et al.
# Submitted via: audiograbber 1.83.01
#
DISCID=230c3914
DTITLE=Wells, Kitty - The Absolutely Essential - CD1
DYEAR=2017
DGENRE=Country
TTITLE0=It Wasn't God Who Made Honky Tonk Angels
TTITLE1=Release Me
TTITLE2=The Things I Might Have Been
TTITLE3=I Heard The Jukebox Playing
TTITLE4=Paying For That Back Street Affair
TTITLE5=I Don't Claim To Be An Angel
TTITLE6=Hey Joe
TTITLE7=Cheatin's A Sin
TTITLE8=You're Not Easy To Forget
TTITLE9=I'm A Stranger In My Home (with Red Foley)
TTITLE10=Thou Shalt Not Steal
TTITLE11=I Gave My Wedding Dress Away
TTITLE12=Whose Shoulder Will You Cry On?
TTITLE13=There's Poison In Your Heart
TTITLE14=As Long As I Live (with Red Foley)
TTITLE15=I'm In Love With You
TTITLE16=The Lonely Side Of Town
TTITLE17=Make Believe ('Til We Can Make It Come True) (with Red Foley)
TTITLE18=I've Kissed You My Last Time
TTITLE19=I'd Rather Stay Home
EXTD=
EXTT0=
EXTT1=
EXTT2=
EXTT3=
EXTT4=
EXTT5=
EXTT6=
EXTT7=
EXTT8=
EXTT9=
EXTT10=
EXTT11=
EXTT12=
EXTT13=
EXTT14=
EXTT15=
EXTT16=
EXTT17=
EXTT18=
EXTT19=
PLAYORDER=
